<svg width="25" height="24" viewBox="0 0 25 24" fill="none" xmlns="http://www.w3.org/2000/svg">
<path d="M16.1967 3.7804C17.1231 3.03188 18.1607 2.98644 19.2944 3.00233C19.8808 3.01055 20.1739 3.01467 20.4091 3.10588C20.7823 3.2506 21.0794 3.54764 21.2241 3.92081C21.3153 4.15601 21.3194 4.4492 21.3276 5.03557C21.3435 6.16926 21.2981 7.20686 20.5496 8.13326C19.9192 8.91337 18.8358 9.32101 18.3146 10.1821C17.9165 10.8395 18.102 11.5203 18.2729 12.2209L19.5528 17.4662C19.8078 18.5115 19.6138 19.1815 18.8828 19.9124C18.494 20.3013 18.1705 20.2816 17.8551 19.779L13.9926 13.6249L12.1481 15.0911C11.4793 15.6228 11.1448 15.8886 10.9691 16.2627C10.5575 17.1388 10.8189 18.4547 10.8322 19.4046C10.8396 19.9296 10.3858 20.9644 9.74386 20.9993C9.34752 21.0209 9.21278 20.5468 9.08477 20.2558L7.8523 17.4544C7.55755 16.7845 7.54548 16.7724 6.87552 16.4777L4.07411 15.2452C3.78314 15.1172 3.3091 14.9824 3.33067 14.5861C3.3656 13.9441 4.40032 13.4904 4.92532 13.4978C5.87527 13.5111 7.19118 13.7724 8.06729 13.3608C8.44137 13.1851 8.7072 12.8507 9.23884 12.1819L10.7051 10.3373L4.55098 6.47489C4.0484 6.15946 4.02868 5.83597 4.41751 5.44715C5.14846 4.7162 5.81847 4.52214 6.86373 4.77718L12.109 6.05703C12.8096 6.22798 13.4904 6.41343 14.1479 6.0154C15.0089 5.49411 15.4166 4.41074 16.1967 3.7804Z" fill="#F8DA33" stroke="#F8DA33" stroke-width="1.5" stroke-linecap="round" stroke-linejoin="round"/>
</svg>
