<svg width="32" height="33" viewBox="0 0 32 33" fill="none" xmlns="http://www.w3.org/2000/svg">
<path d="M13.4953 8.16666C11.1646 8.21995 9.80321 8.44258 8.87307 9.37273C7.94292 10.3029 7.72028 11.6642 7.66699 13.995M18.5054 8.16666C20.8361 8.21995 22.1974 8.44258 23.1276 9.37273C24.0577 10.3029 24.2804 11.6642 24.3337 13.995M18.5054 24.8333C20.8361 24.78 22.1974 24.5574 23.1276 23.6272C24.0577 22.6971 24.2804 21.3357 24.3337 19.005M13.4953 24.8333C11.1646 24.78 9.80321 24.5574 8.87307 23.6272C7.94292 22.6971 7.72028 21.3357 7.66699 19.005" stroke="#161817" stroke-width="1.25" stroke-linecap="round" stroke-linejoin="round"/>
<path d="M20.1668 12.3333H20.1743" stroke="#161817" stroke-width="1.66667" stroke-linecap="round" stroke-linejoin="round"/>
<path d="M16.8333 11.5V14C16.8333 15.5713 16.8333 16.357 16.3452 16.8452C15.857 17.3333 15.0713 17.3333 13.5 17.3333H11" stroke="#161817" stroke-width="1.25" stroke-linecap="round"/>
<path d="M11.2441 11.7441C11 11.9882 11 12.381 11 13.1667C11 13.9523 11 14.3452 11.2441 14.5893M11.2441 11.7441C11.4882 11.5 11.881 11.5 12.6667 11.5C13.4523 11.5 13.8452 11.5 14.0893 11.7441M11.2441 11.7441C11.2441 11.7441 11.2441 11.7441 11.2441 11.7441ZM11.2441 14.5893C11.4882 14.8333 11.881 14.8333 12.6667 14.8333C13.4523 14.8333 13.8452 14.8333 14.0893 14.5893M11.2441 14.5893C11.2441 14.5893 11.2441 14.5893 11.2441 14.5893ZM14.0893 14.5893C14.3333 14.3452 14.3333 13.9523 14.3333 13.1667C14.3333 12.381 14.3333 11.9882 14.0893 11.7441M14.0893 14.5893C14.0893 14.5893 14.0893 14.5893 14.0893 14.5893ZM14.0893 11.7441C14.0893 11.7441 14.0893 11.7441 14.0893 11.7441Z" stroke="#161817" stroke-width="1.25"/>
<path d="M20.167 19C20.5598 19 20.7562 19 20.8783 19.122C21.0003 19.2441 21.0003 19.4405 21.0003 19.8333V20.6667C21.0003 21.0595 21.0003 21.2559 20.8783 21.378C20.7562 21.5 20.5598 21.5 20.167 21.5H18.5003C18.1075 21.5 17.9111 21.5 17.789 21.378C17.667 21.2559 17.667 21.0595 17.667 20.6667L17.667 19.8333C17.667 19.4405 17.667 19.2441 17.789 19.122C17.9111 19 18.1075 19 18.5003 19L20.167 19Z" stroke="#161817" stroke-width="1.25"/>
<path d="M11 21.5H15.1667" stroke="#161817" stroke-width="1.25" stroke-linecap="round"/>
<path d="M20.167 14.8333L20.167 16.5" stroke="#161817" stroke-width="1.25" stroke-linecap="round"/>
</svg>
