<svg width="20" height="20" viewBox="0 0 20 20" fill="none" xmlns="http://www.w3.org/2000/svg">
<path d="M3.67426 9.54289C3.85133 6.17862 6.63082 3.54156 9.99976 3.54156C13.3687 3.54156 16.1482 6.17862 16.3253 9.5429C16.3328 9.68665 16.3385 9.82431 16.3439 9.95692L16.3439 9.95698V9.95699C16.3623 10.4083 16.3784 10.8011 16.4602 11.1776C16.5579 11.6275 16.7387 11.9812 17.1063 12.2569C17.7474 12.7377 18.1248 13.4924 18.1248 14.2938C18.1248 15.4449 17.2188 16.4582 15.9998 16.4582H3.99976C2.78075 16.4582 1.87476 15.4449 1.87476 14.2938C1.87476 13.4924 2.25207 12.7377 2.8932 12.2569C3.26083 11.9812 3.44163 11.6275 3.53933 11.1776C3.62109 10.8011 3.63717 10.4082 3.65563 9.95698L3.65563 9.95693C3.66106 9.82432 3.66669 9.68666 3.67426 9.54289Z" fill="#7132A5"/>
<path fill-rule="evenodd" clip-rule="evenodd" d="M8.77356 1.1452C9.14448 0.902382 9.59724 0.833252 9.99976 0.833252C10.4023 0.833252 10.855 0.902382 11.226 1.1452C11.6375 1.41458 11.8748 1.85061 11.8748 2.39575C11.8748 2.89255 11.6806 3.41138 11.3853 3.80873C11.0946 4.19982 10.6177 4.58325 9.99976 4.58325C9.38183 4.58325 8.90496 4.19982 8.61426 3.80873C8.31892 3.41138 8.12476 2.89255 8.12476 2.39575C8.12476 1.85061 8.36206 1.41458 8.77356 1.1452Z" fill="#7132A5"/>
<path fill-rule="evenodd" clip-rule="evenodd" d="M7.49984 14.9999C7.96007 14.9999 8.33317 15.373 8.33317 15.8333C8.33317 16.7537 9.07936 17.4999 9.99984 17.4999C10.9203 17.4999 11.6665 16.7537 11.6665 15.8333C11.6665 15.373 12.0396 14.9999 12.4998 14.9999C12.9601 14.9999 13.3332 15.373 13.3332 15.8333C13.3332 17.6742 11.8408 19.1666 9.99984 19.1666C8.15889 19.1666 6.6665 17.6742 6.6665 15.8333C6.6665 15.373 7.0396 14.9999 7.49984 14.9999Z" fill="#7132A5"/>
</svg>
