<svg width="24" height="24" viewBox="0 0 24 24" fill="none" xmlns="http://www.w3.org/2000/svg">
<path d="M2.90821 15.5377C2.00024 14.4313 2.00024 12.7876 2.00024 9.50006C2.00024 6.21255 2.00024 4.5688 2.90821 3.46244C3.07443 3.2599 3.26015 3.07418 3.46268 2.90797C4.56904 2 6.2128 2 9.50031 2C12.7878 2 14.4316 2 15.5379 2.90797C15.7405 3.07419 15.9262 3.2599 16.0924 3.46244C16.9531 4.51123 16.9979 6.04294 17.0002 9.00006L9.0003 17C6.04319 16.9977 4.51147 16.9529 3.46268 16.0922C3.26015 15.9259 3.07443 15.7402 2.90821 15.5377Z" fill="#A5A1A1" stroke="#A5A1A1" stroke-width="1.5" stroke-linecap="round" stroke-linejoin="round"/>
<path d="M9 15C9 12.1716 9 10.7574 9.87868 9.87868C10.7574 9 12.1716 9 15 9L16 9C18.8284 9 20.2426 9 21.1213 9.87868C22 10.7574 22 12.1716 22 15V16C22 18.8284 22 20.2426 21.1213 21.1213C20.2426 22 18.8284 22 16 22H15C12.1716 22 10.7574 22 9.87868 21.1213C9 20.2426 9 18.8284 9 16L9 15Z" fill="black" stroke="black" stroke-width="1.5" stroke-linecap="round" stroke-linejoin="round"/>
</svg>
