<svg width="24" height="24" viewBox="0 0 24 24" fill="none" xmlns="http://www.w3.org/2000/svg">
<path fill-rule="evenodd" clip-rule="evenodd" d="M14.9223 2.42835C13.2679 0.857175 10.7321 0.857175 9.07766 2.42835C7.79766 3.64394 6.22927 5.31953 4.97628 7.24152C3.72892 9.15487 2.75 11.3797 2.75 13.678C2.75 18.1459 6.25744 22.75 12 22.75C17.7426 22.75 21.25 18.1459 21.25 13.678C21.25 11.3797 20.2711 9.15488 19.0237 7.24152C17.7707 5.31953 16.2023 3.64394 14.9223 2.42835ZM15 13.9999C15 15.6568 13.6569 16.9999 12 16.9999C11.4477 16.9999 11 17.4476 11 17.9999C11 18.5522 11.4477 18.9999 12 18.9999C14.7614 18.9999 17 16.7613 17 13.9999C17 13.4476 16.5523 12.9999 16 12.9999C15.4477 12.9999 15 13.4476 15 13.9999Z" fill="#00BF63"/>
</svg>
