<svg width="20" height="21" viewBox="0 0 20 21" fill="none" xmlns="http://www.w3.org/2000/svg">
<path d="M11.4513 4.81982C11.9729 4.25466 12.2337 3.97208 12.5109 3.80725C13.1796 3.40953 14.003 3.39716 14.6829 3.77463C14.9647 3.93106 15.2335 4.20568 15.7712 4.75493C16.3089 5.30418 16.5777 5.57881 16.7308 5.86665C17.1003 6.56118 17.0882 7.40235 16.6989 8.08549C16.5375 8.36861 16.2609 8.63504 15.7077 9.16791L9.1251 15.508C8.07668 16.5178 7.55246 17.0227 6.89731 17.2786C6.24215 17.5345 5.52191 17.5157 4.08142 17.478L3.88543 17.4729C3.4469 17.4614 3.22763 17.4557 3.10017 17.311C2.97272 17.1664 2.99012 16.943 3.02492 16.4963L3.04382 16.2538C3.14177 14.9965 3.19075 14.3678 3.43626 13.8028C3.68177 13.2377 4.10527 12.7788 4.95226 11.8612L11.4513 4.81982Z" stroke="#A5A1A1" stroke-width="1.5" stroke-linejoin="round"/>
<path d="M10.7 4.89996L15.6 9.79996" stroke="#A5A1A1" stroke-width="1.5" stroke-linejoin="round"/>
</svg>
