<svg width="17" height="18" viewBox="0 0 17 18" fill="none" xmlns="http://www.w3.org/2000/svg">
<path d="M11.0001 11.5C11.0001 12.1904 11.5598 12.75 12.2501 12.75C12.9405 12.75 13.5001 12.1904 13.5001 11.5C13.5001 10.8096 12.9405 10.25 12.2501 10.25C11.5598 10.25 11.0001 10.8096 11.0001 11.5Z" stroke="#A5A1A1" stroke-width="1.25"/>
<path d="M11.0033 5.50222C6.48028 5.1888 2.75404 4.51765 1.00012 3.99988V11.5511C1.00012 13.2131 1.00012 14.0441 1.51644 14.7218C2.03276 15.3996 2.74115 15.591 4.15793 15.9738C6.44698 16.5923 8.85304 16.9607 11.009 17.1713C13.2434 17.3897 14.3606 17.4988 15.1803 16.7497C16.0001 16.0005 16.0001 14.797 16.0001 12.3901V10.7121C16.0001 8.37466 16.0001 7.20596 15.3276 6.48061C14.655 5.75526 13.4378 5.67092 11.0033 5.50222Z" stroke="#A5A1A1" stroke-width="1.25" stroke-linecap="round" stroke-linejoin="round"/>
<path d="M13.1883 5.66675C13.503 4.48069 13.7879 2.3236 12.9393 1.25251C12.4014 0.57364 11.602 0.638863 10.8183 0.707794C6.69838 1.07013 3.78799 1.80617 2.16097 2.30623C1.46136 2.52125 1.00012 3.20443 1.00012 3.96711" stroke="#A5A1A1" stroke-width="1.25" stroke-linejoin="round"/>
</svg>
