<svg width="16" height="16" viewBox="0 0 16 16" fill="none" xmlns="http://www.w3.org/2000/svg">
<path d="M14.3624 7.3633C14.5651 7.64752 14.6665 7.78962 14.6665 7.99998C14.6665 8.21034 14.5651 8.35244 14.3624 8.63666C13.4517 9.91369 11.1259 12.6666 7.9998 12.6666C4.87365 12.6666 2.54786 9.91369 1.63716 8.63666C1.43447 8.35244 1.33313 8.21034 1.33313 7.99998C1.33313 7.78962 1.43447 7.64752 1.63716 7.3633C2.54786 6.08627 4.87365 3.33331 7.9998 3.33331C11.1259 3.33331 13.4517 6.08627 14.3624 7.3633Z" stroke="#161817"/>
<path d="M10 7.99997C10 6.8954 9.10457 5.99997 8 5.99997C6.89543 5.99997 6 6.8954 6 7.99997C6 9.10454 6.89543 9.99997 8 9.99997C9.10457 9.99997 10 9.10454 10 7.99997Z" stroke="#161817"/>
</svg>
