<svg width="20" height="20" viewBox="0 0 20 20" fill="none" xmlns="http://www.w3.org/2000/svg">
<path d="M16.667 10.2287C16.667 10.5451 16.4319 10.8066 16.1268 10.848L16.042 10.8537L3.54199 10.8537C3.19681 10.8537 2.91699 10.5738 2.91699 10.2287C2.91699 9.91225 3.15212 9.65076 3.45718 9.60937L3.54199 9.60367L16.042 9.60367C16.3872 9.60367 16.667 9.88349 16.667 10.2287Z" fill="#A5A1A1"/>
<path d="M9.02436 14.8061C9.26897 15.0497 9.26982 15.4454 9.02627 15.69C8.80486 15.9124 8.45768 15.9333 8.21261 15.7523L8.14239 15.6919L3.10072 10.6719C2.87769 10.4498 2.8574 10.1014 3.03986 9.85636L3.10068 9.78617L8.14235 4.76534C8.38693 4.52176 8.78266 4.52258 9.02623 4.76717C9.24766 4.98951 9.26711 5.33677 9.08506 5.58107L9.0244 5.65105L4.42771 10.2293L9.02436 14.8061Z" fill="#A5A1A1"/>
</svg>
