<svg width="20" height="20" viewBox="0 0 20 20" fill="none" xmlns="http://www.w3.org/2000/svg">
<path fill-rule="evenodd" clip-rule="evenodd" d="M10.0473 1.45825C11.8729 1.45824 13.3068 1.45823 14.4263 1.60875C15.5735 1.76299 16.4838 2.08551 17.1989 2.80068C17.9141 3.51585 18.2366 4.42606 18.3908 5.57327C18.5414 6.69277 18.5414 8.12666 18.5413 9.95222V9.95224V9.95226V9.95228V10.0476V10.0476V10.0476V10.0476C18.5414 11.8732 18.5414 13.3071 18.3908 14.4266C18.2366 15.5738 17.9141 16.484 17.1989 17.1992C16.4838 17.9143 15.5735 18.2369 14.4263 18.3911C13.3068 18.5416 11.8729 18.5416 10.0474 18.5416H10.0474H10.0473H10.0473H9.95204H9.95202H9.952H9.95198C8.12641 18.5416 6.69253 18.5416 5.57303 18.3911C4.42581 18.2369 3.5156 17.9143 2.80044 17.1992C2.08527 16.484 1.76274 15.5738 1.6085 14.4266C1.45799 13.3071 1.458 11.8732 1.45801 10.0476V9.95227C1.458 8.12669 1.45799 6.69279 1.6085 5.57327C1.76274 4.42606 2.08527 3.51585 2.80044 2.80068C3.5156 2.08551 4.42581 1.76299 5.57303 1.60875C6.69254 1.45823 8.12644 1.45824 9.95203 1.45825H10.0473ZM9.99967 7.08325C9.53944 7.08325 9.16634 7.45635 9.16634 7.91658C9.16634 8.37682 8.79324 8.74992 8.33301 8.74992C7.87277 8.74992 7.49967 8.37682 7.49967 7.91658C7.49967 6.53587 8.61896 5.41659 9.99967 5.41659C11.3804 5.41659 12.4997 6.53587 12.4997 7.91658C12.4997 8.41303 12.3541 8.87802 12.1031 9.26818C11.9524 9.50227 11.7778 9.72359 11.6222 9.91688L11.5371 10.0224C11.4084 10.1818 11.294 10.3233 11.188 10.469C10.9246 10.831 10.833 11.0641 10.833 11.2499C10.833 11.7102 10.4599 12.0833 9.99967 12.0833C9.53944 12.0833 9.16634 11.7102 9.16634 11.2499C9.16634 10.5153 9.52698 9.91907 9.84035 9.48839C9.97356 9.30531 10.1198 9.12445 10.2491 8.96456L10.3237 8.87205C10.4779 8.68047 10.6031 8.51925 10.7015 8.36631C10.7847 8.23703 10.833 8.08373 10.833 7.91658C10.833 7.45635 10.4599 7.08325 9.99967 7.08325ZM9.99595 12.9166C9.53777 12.9166 9.16634 13.2897 9.16634 13.7499C9.16634 14.2102 9.53777 14.5833 9.99595 14.5833H10.0034C10.4616 14.5833 10.833 14.2102 10.833 13.7499C10.833 13.2897 10.4616 12.9166 10.0034 12.9166H9.99595Z" fill="#7132A5"/>
</svg>
