<svg width="21" height="20" viewBox="0 0 21 20" fill="none" xmlns="http://www.w3.org/2000/svg">
<path fill-rule="evenodd" clip-rule="evenodd" d="M11.4396 0.894195C11.842 0.733307 12.3005 0.907627 12.4943 1.29518L14.161 4.62741L12.6704 5.37298L11.3467 2.72635L4.24906 5.56446L4.24907 14.4359L11.3467 17.274L12.6704 14.6274L14.161 15.373L12.4943 18.7052C12.3005 19.0928 11.842 19.2671 11.4396 19.1062L3.10633 15.774C2.7899 15.6474 2.5824 15.341 2.5824 15.0002L2.5824 5.0002C2.5824 4.65941 2.7899 4.35296 3.10633 4.22643L11.4396 0.894195Z" fill="#A5A1A1"/>
<path fill-rule="evenodd" clip-rule="evenodd" d="M15.2244 10.8313L14.147 11.9087L15.3254 13.0872L18.4149 9.99797L15.3254 6.90869L14.147 8.08724L15.2244 9.16463H8.0697V10.8313H15.2244Z" fill="#A5A1A1"/>
</svg>
