<svg width="20" height="21" viewBox="0 0 20 21" fill="none" xmlns="http://www.w3.org/2000/svg">
<path d="M7.49529 2.16666C5.16457 2.21995 3.80321 2.44258 2.87307 3.37273C1.94292 4.30288 1.72028 5.66423 1.66699 7.99496M12.5054 2.16666C14.8361 2.21995 16.1974 2.44258 17.1276 3.37273C18.0577 4.30288 18.2804 5.66423 18.3337 7.99496M12.5054 18.8333C14.8361 18.78 16.1974 18.5574 17.1276 17.6272C18.0577 16.6971 18.2804 15.3357 18.3337 13.005M7.49529 18.8333C5.16457 18.78 3.80321 18.5574 2.87307 17.6272C1.94292 16.6971 1.72028 15.3357 1.66699 13.005" stroke="#161817" stroke-width="1.25" stroke-linecap="round" stroke-linejoin="round"/>
<path d="M14.1668 6.33331H14.1743" stroke="#161817" stroke-width="1.66667" stroke-linecap="round" stroke-linejoin="round"/>
<path d="M10.8333 5.5V8C10.8333 9.57135 10.8333 10.357 10.3452 10.8452C9.85702 11.3333 9.07135 11.3333 7.5 11.3333H5" stroke="#161817" stroke-width="1.25" stroke-linecap="round"/>
<path d="M5.24408 5.74408C5 5.98816 5 6.38099 5 7.16667C5 7.95234 5 8.34518 5.24408 8.58926M5.24408 5.74408C5.48816 5.5 5.88099 5.5 6.66667 5.5C7.45234 5.5 7.84518 5.5 8.08926 5.74408M5.24408 5.74408C5.24408 5.74408 5.24408 5.74408 5.24408 5.74408ZM5.24408 8.58926C5.48816 8.83333 5.88099 8.83333 6.66667 8.83333C7.45234 8.83333 7.84518 8.83333 8.08926 8.58926M5.24408 8.58926C5.24408 8.58926 5.24408 8.58926 5.24408 8.58926ZM8.08926 8.58926C8.33333 8.34518 8.33333 7.95234 8.33333 7.16667C8.33333 6.38099 8.33333 5.98816 8.08926 5.74408M8.08926 8.58926C8.08926 8.58926 8.08926 8.58926 8.08926 8.58926ZM8.08926 5.74408C8.08926 5.74408 8.08926 5.74408 8.08926 5.74408Z" stroke="#161817" stroke-width="1.25"/>
<path d="M14.167 13C14.5598 13 14.7562 13 14.8783 13.122C15.0003 13.2441 15.0003 13.4405 15.0003 13.8333V14.6667C15.0003 15.0595 15.0003 15.2559 14.8783 15.378C14.7562 15.5 14.5598 15.5 14.167 15.5H12.5003C12.1075 15.5 11.9111 15.5 11.789 15.378C11.667 15.2559 11.667 15.0595 11.667 14.6667L11.667 13.8333C11.667 13.4405 11.667 13.2441 11.789 13.122C11.9111 13 12.1075 13 12.5003 13L14.167 13Z" stroke="#161817" stroke-width="1.25"/>
<path d="M5 15.5H9.16667" stroke="#161817" stroke-width="1.25" stroke-linecap="round"/>
<path d="M14.167 8.83331L14.167 10.5" stroke="#161817" stroke-width="1.25" stroke-linecap="round"/>
</svg>
