<svg width="25" height="24" viewBox="0 0 25 24" fill="none" xmlns="http://www.w3.org/2000/svg">
<path d="M7.66687 22V12.3981C7.66687 11.3299 7.66687 10.7958 7.91145 10.3478C8.15602 9.89983 8.60529 9.61101 9.50384 9.03338L11.5854 7.69526C12.1106 7.35763 12.3732 7.18881 12.6669 7.18881C12.9606 7.18881 13.2232 7.35763 13.7484 7.69526L15.8299 9.03338C16.7284 9.61101 17.1777 9.89983 17.4223 10.3478C17.6669 10.7958 17.6669 11.3299 17.6669 12.3981V22" stroke="#141B34" stroke-width="1.5" stroke-linecap="round" stroke-linejoin="round"/>
<path d="M7.66687 12.7101V22H17.6669V12.7101C17.6669 11.4893 17.6669 10.8789 17.3874 10.3669C17.1078 9.85491 16.5944 9.52483 15.5675 8.86468L13.9029 7.79458C13.3026 7.40871 13.0025 7.21578 12.6669 7.21578C12.3312 7.21578 12.0311 7.40871 11.4309 7.79458L9.76626 8.86468C8.73935 9.52483 8.2259 9.85491 7.94638 10.3669C7.66687 10.8789 7.66687 11.4893 7.66687 12.7101Z" fill="#F8DA33" stroke="#F8DA33" stroke-width="1.71429" stroke-linecap="round" stroke-linejoin="round"/>
<path d="M12.3334 13H12.3424" stroke="white" stroke-width="2" stroke-linecap="round" stroke-linejoin="round"/>
<path d="M2.33337 22H22.3334" stroke="#F8DA33" stroke-width="1.5" stroke-linecap="round" stroke-linejoin="round"/>
<path d="M12.3334 22V18" stroke="white" stroke-width="1.5" stroke-linecap="round"/>
<path d="M12.3334 7V4.98221M12.3334 4.98221V2.97035C12.3334 2.49615 12.3334 2.25905 12.4798 2.11173C12.9394 1.64939 14.8334 2.74303 15.5536 3.18653C16.1619 3.56105 16.3334 4.30914 16.3334 4.98221H12.3334Z" stroke="#F8DA33" stroke-width="1.5" stroke-linecap="round" stroke-linejoin="round"/>
</svg>
