<svg width="20" height="20" viewBox="0 0 20 20" fill="none" xmlns="http://www.w3.org/2000/svg">
<path fill-rule="evenodd" clip-rule="evenodd" d="M9.99848 1.04187C8.3798 1.04187 7.11252 1.7336 5.99388 2.3442L5.95159 2.36729C4.79121 3.00052 3.78161 3.53987 2.51018 3.53987H2.01499L1.90174 4.02156C0.177094 11.3576 3.62311 17.5915 9.86731 18.9304L9.99844 18.9585L10.1296 18.9304C16.3738 17.5915 19.8199 11.3576 18.0952 4.02156L17.982 3.53987H17.4868C16.2173 3.53987 15.2108 3.00083 14.0512 2.3674L14.0133 2.34671C12.8938 1.73513 11.6249 1.04187 9.99848 1.04187ZM9.16532 5.83354V8.33354H10.832V5.83354H9.16532Z" fill="#7132A5"/>
</svg>
