<svg width="20" height="20" viewBox="0 0 20 20" fill="none" xmlns="http://www.w3.org/2000/svg">
<path fill-rule="evenodd" clip-rule="evenodd" d="M11.8748 5.41675C11.8748 3.69086 13.2739 2.29175 14.9998 2.29175C16.7256 2.29175 18.1248 3.69086 18.1248 5.41675C18.1248 7.14264 16.7256 8.54175 14.9998 8.54175C13.2739 8.54175 11.8748 7.14264 11.8748 5.41675Z" fill="#7132A5"/>
<path fill-rule="evenodd" clip-rule="evenodd" d="M1.87476 10.0001C1.87476 8.27417 3.27387 6.87506 4.99976 6.87506C6.72565 6.87506 8.12476 8.27417 8.12476 10.0001C8.12476 11.726 6.72565 13.1251 4.99976 13.1251C3.27387 13.1251 1.87476 11.726 1.87476 10.0001Z" fill="#7132A5"/>
<path fill-rule="evenodd" clip-rule="evenodd" d="M11.8748 14.5834C11.8748 12.8575 13.2739 11.4584 14.9998 11.4584C16.7256 11.4584 18.1248 12.8575 18.1248 14.5834C18.1248 16.3093 16.7256 17.7084 14.9998 17.7084C13.2739 17.7084 11.8748 16.3093 11.8748 14.5834Z" fill="#7132A5"/>
<path fill-rule="evenodd" clip-rule="evenodd" d="M13.0386 7.2165L7.62191 9.71605L6.92358 8.20274L12.3402 5.70319L13.0386 7.2165ZM7.62191 10.2865L13.0386 12.7861L12.3403 14.2994L6.92358 11.7998L7.62191 10.2865Z" fill="#7132A5"/>
</svg>
