<svg width="20" height="20" viewBox="0 0 20 20" fill="none" xmlns="http://www.w3.org/2000/svg">
<path d="M9.99663 1.04169C10.871 1.04169 11.5598 1.70213 11.9995 2.59328L13.4679 5.55432C13.5124 5.64596 13.6179 5.775 13.7766 5.89305C13.9351 6.01097 14.0903 6.07603 14.1925 6.09319L16.8505 6.53846C17.8106 6.6998 18.6153 7.17043 18.8766 7.98994C19.1376 8.80876 18.7552 9.65969 18.0648 10.3514L18.0641 10.3521L15.9991 12.4341C15.9173 12.5166 15.8256 12.672 15.7681 12.8746C15.711 13.0757 15.7059 13.2589 15.7318 13.3773L15.7322 13.3789L16.323 15.9545C16.568 17.0265 16.4868 18.0894 15.7308 18.6452C14.9721 19.2028 13.9354 18.9556 12.9936 18.3947L10.502 16.9075C10.3974 16.845 10.2177 16.7944 10.0008 16.7944C9.78549 16.7944 9.60202 16.8443 9.49058 16.9092L9.489 16.9101L7.00228 18.3944C6.06159 18.9572 5.02616 19.2 4.26747 18.6419C3.51195 18.086 3.42666 17.025 3.67247 15.954L4.26313 13.3789L4.26349 13.3773C4.28939 13.2589 4.28432 13.0757 4.22721 12.8746C4.16971 12.672 4.07803 12.5166 3.99619 12.4341L1.92975 10.3506C1.24375 9.65888 0.86255 8.80869 1.1215 7.99107C1.38121 7.17106 2.1844 6.69985 3.14515 6.5384L5.80098 6.09351L5.80182 6.09337C5.89919 6.07648 6.05213 6.01215 6.21027 5.89392C6.36872 5.77547 6.47454 5.64615 6.51914 5.55432L6.52139 5.54974L7.9879 2.5925L7.98848 2.59133C8.43235 1.70092 9.12324 1.04169 9.99663 1.04169Z" fill="#7132A5"/>
</svg>
