<svg width="26" height="26" viewBox="0 0 26 26" fill="none" xmlns="http://www.w3.org/2000/svg">
<path d="M10.7812 15.1602L0.084169 15.1602" stroke="#1D1D1D" stroke-width="1.93685"/>
<path d="M9.93359 14.332V24.9788" stroke="#1D1D1D" stroke-width="1.93685"/>
<path d="M0.710938 24.3477L9.323 15.7761" stroke="#1D1D1D" stroke-width="1.93685"/>
<path d="M14.2891 9.89844L24.9861 9.89844" stroke="#1D1D1D" stroke-width="1.93685"/>
<path d="M15.1484 10.7227L15.1484 0.075961" stroke="#1D1D1D" stroke-width="1.93685"/>
<path d="M24.3711 0.722656L15.759 9.29422" stroke="#1D1D1D" stroke-width="1.93685"/>
<path d="M15.082 14.1406V24.7874" stroke="#1D1D1D" stroke-width="1.93685"/>
<path d="M14.2617 15L24.9588 15" stroke="#1D1D1D" stroke-width="1.93685"/>
<path d="M24.2969 24.168L15.6848 15.5964" stroke="#1D1D1D" stroke-width="1.93685"/>
<path d="M4.72656 7.13509C4.72656 5.74665 5.85365 4.62109 7.24209 4.62109C8.63053 4.62109 9.75761 5.74665 9.75761 7.13509C9.75761 8.52352 8.63053 9.64908 7.24209 9.64908C5.85365 9.64908 4.72656 8.52352 4.72656 7.13509Z" fill="#1D1D1D"/>
</svg>
