<svg width="25" height="24" viewBox="0 0 25 24" fill="none" xmlns="http://www.w3.org/2000/svg">
<path d="M19.746 8.94009C19.6789 8.78597 19.5701 8.6537 19.4317 8.55828C19.2933 8.46286 19.131 8.4081 18.9631 8.4002H14.8419L15.9847 4.13501C16.0211 4.00155 16.0262 3.86148 15.9997 3.72571C15.9732 3.58994 15.9157 3.46211 15.8317 3.35216C15.7479 3.24327 15.6403 3.15502 15.517 3.09419C15.3938 3.03336 15.2583 3.00156 15.1209 3.00123H8.82207C8.61892 2.99427 8.4194 3.0563 8.25601 3.17721C8.09262 3.29812 7.97497 3.47079 7.92224 3.6671L5.5107 12.6654C5.47431 12.7988 5.46918 12.9389 5.49571 13.0747C5.52224 13.2105 5.57971 13.3383 5.66367 13.4482C5.74842 13.5583 5.85752 13.6473 5.98241 13.7082C6.1073 13.7691 6.2446 13.8002 6.38354 13.7992H9.86587L8.23718 19.864C8.18382 20.0596 8.19806 20.2674 8.27759 20.4539C8.35712 20.6404 8.49728 20.7945 8.67536 20.8914C8.85345 20.9882 9.05901 21.0221 9.25876 20.9875C9.45851 20.9529 9.64072 20.8519 9.77589 20.7008L19.584 9.90291C19.7008 9.77503 19.7782 9.61616 19.8069 9.44538C19.8357 9.27459 19.8145 9.09915 19.746 8.94009ZM10.9367 16.7506L11.8995 13.1513C11.9359 13.0178 11.941 12.8778 11.9145 12.742C11.8879 12.6062 11.8305 12.4784 11.7465 12.3684C11.6627 12.2595 11.555 12.1713 11.4318 12.1105C11.3086 12.0496 11.1731 12.0178 11.0356 12.0175H7.58031L9.50594 4.80089H13.9421L12.7993 9.06607C12.7626 9.20199 12.7583 9.34463 12.7868 9.48251C12.8153 9.62039 12.8757 9.74967 12.9632 9.85995C13.0507 9.97023 13.1629 10.0584 13.2907 10.1175C13.4185 10.1765 13.5584 10.2047 13.6991 10.1999H16.9115L10.9367 16.7506Z" fill="#AE5B35"/>
<path d="M7.8014 5.79993C7.90415 4.77799 8.76428 4 9.79137 4H12.6667C13.7712 4 14.6667 4.89543 14.6667 6V11C14.6667 12.1046 13.7712 13 12.6667 13H7.07754L7.8014 5.79993Z" fill="#AE5B35"/>
<path d="M10.9824 10H17.6667L11.1666 17.5L10.0775 19L10.9824 10Z" fill="#AE5B35"/>
</svg>
