<svg width="21" height="20" viewBox="0 0 21 20" fill="none" xmlns="http://www.w3.org/2000/svg">
<path d="M2.99976 9.16663C2.99976 6.04185 2.99976 4.47946 3.79552 3.38419C4.05252 3.03046 4.36359 2.71939 4.71732 2.46239C5.81259 1.66663 7.37498 1.66663 10.4998 1.66663C13.6245 1.66663 15.1869 1.66663 16.2822 2.46239C16.6359 2.71939 16.947 3.03046 17.204 3.38419C17.9998 4.47946 17.9998 6.04185 17.9998 9.16663V10.8333C17.9998 13.9581 17.9998 15.5205 17.204 16.6157C16.947 16.9695 16.6359 17.2805 16.2822 17.5375C15.1869 18.3333 13.6245 18.3333 10.4998 18.3333C7.37498 18.3333 5.81259 18.3333 4.71732 17.5375C4.36359 17.2805 4.05252 16.9695 3.79552 16.6157C2.99976 15.5205 2.99976 13.9581 2.99976 10.8333V9.16663Z" stroke="#A5A1A1" stroke-width="1.25" stroke-linecap="round" stroke-linejoin="round"/>
<path d="M12.9997 10L6.33301 10M8.83301 14.1667H6.33301" stroke="#A5A1A1" stroke-width="1.25" stroke-linecap="round" stroke-linejoin="round"/>
</svg>
