<svg width="21" height="20" viewBox="0 0 21 20" fill="none" xmlns="http://www.w3.org/2000/svg">
<path d="M13.0001 12.5C13.0001 13.1904 13.5598 13.75 14.2501 13.75C14.9405 13.75 15.5001 13.1904 15.5001 12.5C15.5001 11.8096 14.9405 11.25 14.2501 11.25C13.5598 11.25 13.0001 11.8096 13.0001 12.5Z" stroke="#A5A1A1" stroke-width="1.25"/>
<path d="M13.0033 6.50222C8.48028 6.1888 4.75404 5.51765 3.00012 4.99988V12.5511C3.00012 14.2131 3.00012 15.0441 3.51644 15.7218C4.03276 16.3996 4.74115 16.591 6.15793 16.9738C8.44698 17.5923 10.853 17.9607 13.009 18.1713C15.2434 18.3897 16.3606 18.4988 17.1803 17.7497C18.0001 17.0005 18.0001 15.797 18.0001 13.3901V11.7121C18.0001 9.37466 18.0001 8.20596 17.3276 7.48061C16.655 6.75526 15.4378 6.67092 13.0033 6.50222Z" stroke="#A5A1A1" stroke-width="1.25" stroke-linecap="round" stroke-linejoin="round"/>
<path d="M15.1883 6.66675C15.503 5.48069 15.7879 3.3236 14.9393 2.25251C14.4014 1.57364 13.602 1.63886 12.8183 1.70779C8.69838 2.07013 5.78799 2.80617 4.16097 3.30623C3.46136 3.52125 3.00012 4.20443 3.00012 4.96711" stroke="#A5A1A1" stroke-width="1.25" stroke-linejoin="round"/>
</svg>
